# xmcd
#
# Track frame offsets:
#	150
#	13450
#	28225
#	41435
#	53211
#	66803
#	86361
#	100254
#	115969
#	126149
#	135770
#	153707
#	173424
#	183612
#	205580
#
# Disc length: 2946 seconds
# Revision: 0
# Processed by: cddbd v1.5.2PL0 Copyright (c) Steve Scherf et al.
# Submitted via: dBpowerAMP V12.0
#
DISCID=c60b800f
DTITLE=Kenny Rogers - The Kenny Rogers Collection (Sunday Life)
DYEAR=2006
DGENRE=Country
TTITLE0=Ruby Don't Take Your Love To Town
TTITLE1=For The Good Times
TTITLE2=Shine On Ruby Mountain
TTITLE3=Me And Bobby McGee
TTITLE4=I'm Going To Sing You A Sad Song Suzie
TTITLE5=Lay It Down
TTITLE6=Molly
TTITLE7=Tulsa Turnaround
TTITLE8=Where Does Rosie Go
TTITLE9=Camptown Ladies
TTITLE10=Czardas
TTITLE11=Earth Dog
TTITLE12=Frosty Morning
TTITLE13=In The Sky
TTITLE14=Morning Has Broken
EXTD=
EXTT0=
EXTT1=
EXTT2=
EXTT3=
EXTT4=
EXTT5=
EXTT6=
EXTT7=
EXTT8=
EXTT9=
EXTT10=
EXTT11=
EXTT12=
EXTT13=
EXTT14=
PLAYORDER=
